Patient4_TMGait_0pt6_02_left_09_EMG.mot
version=1
nRows=33
nColumns=33
inDegrees=no
endheader
time	1LAddLong	2LGlutMax	3LGlutMed	4LIliopsoas	5LSemiMemb	6LBicFemLong	7LRecFem	8LVastMed	9LVastLat	10LGasMed	11LTibAnt	12lTibPost	13LPeroneusLong	14LSol	15LExtDigLong	16LFlexDigLong	17RAddLong	18RGlutMax	19RGlutMed	20RIliopsoas	21RSemiMemb	22RBicFemLong	23RRecFem	24RVastMed	25RVastLat	26RGasMed	27RTibAnt	28RTibPost	29RPeroneusLong	30RSol	31RExtDigLong	32RFlexDigLong
11.395	0.01358	0.95017	-0.1088	0.029755	0.070343	0.13519	1.0176	-0.005493	-0.20172	-0.079651	0.025024	0.033417	0.098267	0.030212	0.112	0.003357	0.037994	-0.16068	-0.25833	0.2858	-0.014496	0.14725	0.52155	-0.016174	0.02533	-0.008698	0.10223	-0.001526	0.005493	0.33478	-0.000153	-0.029297
11.396	0.009613	0.92743	-0.15762	0.013428	-0.008392	0.040283	1.0338	-0.001068	-0.015717	-0.035706	0.020905	0.038452	0.24735	-0.014343	0.063934	-0.003967	0.041199	-0.2385	-0.24979	0.1297	-0.032959	0.16907	0.45898	-0.023956	0.029907	-0.009155	0.095825	-0.009308	0.2359	0.16159	0.001526	-0.027771
11.397	0.011749	0.89645	-0.25909	0.033875	-0.066528	-0.012817	0.92606	0.014038	0.12741	-0.007782	0.01297	0.035095	0.28595	-0.048676	0.065918	-0.005951	0.072174	-0.23758	-0.33676	0.063324	-0.007629	0.25116	0.48477	0.018005	0.018768	-0.006256	0.054169	-0.013123	0.21133	-0.10239	0.012054	-0.023346
11.398	0.023041	0.87769	-0.39276	0.001984	-0.10422	0.015411	0.84885	0.024261	0.17761	-0.098114	0.017242	0.036469	0.11444	0.019531	0.057831	0.010834	0.096741	-0.27847	-0.40237	0.025787	-0.039368	0.24735	0.50232	0.00351	0.023041	-0.001526	0.02121	-0.017548	0.077209	-0.20813	-0.000763	-0.022125
11.399	0.023193	0.93185	-0.35568	-0.000305	-0.11429	0.04425	0.9317	0.018921	0.11597	-0.10254	0.018921	0.033875	0.041504	0.062866	-0.00885	-0.003967	0.079346	-0.327	-0.40115	-0.001373	-0.12024	0.31738	0.46814	-0.01236	0.016479	0.00351	0.014191	-0.013275	-0.08667	-0.24872	-0.000305	-0.020447
11.4	0.001068	0.9523	-0.16037	-0.006866	-0.046844	0.002747	1.0057	0.007629	-0.10361	-0.10468	0.02533	0.032959	0.21408	0.13931	-0.023804	0.001831	0.053558	-0.28198	-0.45746	-0.011902	-0.12756	0.37231	0.46417	0.020294	0.03067	0.007629	0.11826	-0.014191	-0.12756	-0.25314	0.000763	-0.014191
11.401	0.020447	0.99853	-0.008392	0.010681	0.001373	-0.068665	0.91934	-0.009766	-0.19348	-0.07782	0.00885	0.034943	0.089264	0.16007	-0.046997	0.003815	0.041809	-0.36301	-0.48599	-0.044861	-0.095825	0.30685	0.42343	0.003662	0.047455	0.010071	0.19363	-0.011292	-0.039368	-0.16876	0.003815	-0.011444
11.402	0.028381	1.0715	0.004883	0.022888	0.018616	-0.06134	0.80734	-0.013428	-0.25299	-0.043335	-0.004425	0.030975	-0.20538	0.20386	-0.037842	0.000153	0.045471	-0.42129	-0.53879	-0.083771	-0.091248	0.2623	0.42587	0.050659	0.033264	0.002441	0.14938	0.00885	0.067444	-0.22858	0	-0.013123
11.403	0.02655	1.0939	-0.079803	0.020294	0.017242	0.0914	0.7869	-0.002289	-0.2417	-0.031433	-0.010681	0.023804	-0.24719	0.21484	-0.025787	-0.003052	0.014496	-0.41412	-0.63294	-0.037842	-0.059204	0.22156	0.48248	-0.008392	0.027618	-0.006104	0.03418	0.015717	0.12268	-0.08728	0.000916	-0.002289
11.404	0.016937	1.1151	-0.082855	0.018005	-0.030975	0.052032	0.85632	-0.010834	-0.16693	-0.020599	-0.010681	0.029449	-0.07843	0.16876	-0.015564	-0.015717	-0.024261	-0.44937	-0.63126	-0.011444	-0.018921	0.18509	0.45487	-0.02121	0.018005	-0.016022	-0.29495	-0.001678	0.12756	0.36728	0.004272	-0.00824
11.405	-0.001678	1.1229	-0.08728	0.005493	-0.028839	0.066833	0.77621	0.008698	-0.029602	0	0.003052	0.018768	0.016632	0.061188	0.012817	-0.021667	-0.037384	-0.51056	-0.6691	0.09964	0.13626	-0.074158	0.41779	0.019836	0.015259	-0.0177	-0.56076	-0.003357	0.045929	0.26321	0.000763	-0.014038
11.406	-0.008698	1.1328	-0.036926	-0.003967	-0.097656	0.012817	0.53207	0.009003	0.055847	0.087738	0.00351	0.016632	0.088501	0.090027	0.048065	-0.018311	-0.051117	-0.45731	-0.68008	0.17944	0.24323	-0.30182	0.46341	-0.023346	0.015564	-0.011597	-0.099792	-0.013885	0.067902	0.079956	-0.004883	-0.014496
11.407	-0.000763	1.1011	0.075684	-0.010529	-0.10025	-0.14404	0.2269	0.017853	0.1297	0.11566	0.014648	0.008545	0.1297	0.047455	0.01709	-0.017853	-0.045776	-0.4805	-0.66437	0.12711	0.20111	-0.23941	0.46051	0.007935	0.012054	-0.010834	0.47058	-0.016022	0.039063	0.10025	-0.002594	-0.015259
11.408	0.00412	1.1653	0.076752	-0.018005	0.020447	-0.074158	0.057983	0.023346	0.18585	-0.10254	0.027771	0.001221	0.06073	0.00061	-0.01709	-0.043793	-0.03067	-0.51346	-0.66009	0.045319	0.16586	-0.17242	0.50323	-0.006714	-0.016632	-0.00824	0.45059	-0.023346	-0.029755	0.0177	0.00061	-0.020752
11.409	0.020752	1.1867	-0.007477	-0.001984	0.079041	0.088501	-0.095367	0.000916	0.20889	-0.13733	0.039368	0.000458	0.007019	0.018463	-0.022736	-0.061188	-0.006714	-0.58472	-0.70831	0.06958	0.11505	-0.072937	0.50156	-0.066681	-0.003815	-0.005646	0.58807	-0.016785	-0.17319	-0.22751	-0.009155	-0.020905
11.41	0.031586	1.0991	-0.055847	0.059509	0.072174	0.13351	-0.22659	0.003204	0.071869	-0.097961	0.036469	0.005798	0.010376	0.023041	-0.012207	0.091248	-0.029907	-0.57922	-0.68405	0.13763	0.048218	-0.02533	0.48721	-0.037384	-0.004883	-0.001831	0.59586	-0.010223	-0.17334	-0.26733	-0.001678	-0.021667
11.411	0.023346	1.1319	-0.16052	0.044708	0.014954	0.18494	-0.30685	0.01297	0.09903	0.096741	0.029602	0.022888	0.083466	0.04303	0.030212	-0.08255	-0.028534	-0.62088	-0.65933	0.13306	-0.007324	0.06012	0.53482	-0.10239	0.010986	0.002289	0.44998	-0.008545	0.021362	-0.34897	-0.002747	-0.019531
11.412	0.010071	1.0855	-0.23254	0.032349	-0.012054	0.22186	-0.33646	0.019226	0.16098	0.19241	0.003967	0.034637	0.11231	-0.008392	0.06134	-0.12802	0.00473	-0.58731	-0.66345	0.027618	-0.029602	0.14893	0.51193	-0.17654	-0.030823	0.017548	-0.65704	-0.019226	0.23117	-0.46448	-0.000458	-0.012054
11.413	-0.000916	0.94223	-0.28534	0.023193	0.00824	0.18478	-0.35294	0.01297	0.21255	0.24796	0.010834	0.042877	-0.090942	-0.051117	0.033569	0.21072	-0.013733	-0.58441	-0.68024	-0.058289	0.004272	0.11231	0.49683	-0.17914	-0.036774	0.004425	-1.3303	-0.011444	0.086365	-0.36331	0.002747	-0.018463
11.414	-0.013428	0.88257	-0.31738	0.023346	0.042419	0.11551	-0.36743	0.009155	0.18219	0.13931	0.00473	-0.008392	-0.10849	0.028229	0.028381	0.15411	-0.020447	-0.634	-0.67474	-0.092468	0.015411	0.039215	0.51148	-0.20874	-0.029755	0.003815	-0.97931	-0.007324	0.092468	-0.271	0.001373	-0.019836
11.415	-0.009308	0.78659	-0.35233	-0.005341	0.018768	0.13657	-0.43289	0.012512	0.21362	0.059814	-0.015106	0.027161	0.14969	-0.07782	0.0177	-0.72876	0.007629	-0.6369	-0.66559	-0.047455	-0.000916	0.050049	0.43335	-0.16419	-0.023193	-0.00061	-0.55008	-0.01709	0.14282	-0.16083	0.001373	-0.020905
11.416	0.008698	0.63995	-0.30579	0.002136	-0.028992	0.21164	-0.50659	0.014801	0.083466	-0.029144	-0.001831	0.035706	0.090942	-0.32394	0.018005	-0.022888	0.023041	-0.63309	-0.67856	-0.055084	-0.010376	0.063324	0.40787	-0.16342	-0.019989	0.002899	-0.45441	-0.011902	0.15167	0.00946	-0.00061	-0.014038
11.417	0.010071	0.55862	-0.1416	0.020294	-0.06012	0.35538	-0.59403	0.005493	-0.32272	0.013275	-0.002747	-0.12436	-0.06485	-0.34973	-0.018921	0.087738	0.051422	-0.6546	-0.67963	-0.054626	0.002747	0.073547	0.36224	-0.13168	-0.024719	0.006256	-0.49896	-0.012054	0.12772	0.1561	0.00061	-0.010681
11.418	0.007324	0.44052	-0.019226	0.012817	-0.017548	0.47882	-0.63294	-0.013428	-0.45319	-0.092773	0.01236	-0.087738	-0.17502	-0.12528	-0.004883	0.019073	0.03418	-0.72632	-0.72113	-0.046387	-0.002899	0.072632	0.34592	-0.075378	0.005798	0.00061	0.056915	-0.009003	0.097351	0.22934	-0.003357	-0.010376
11.419	0.005188	0.4126	-0.11627	0.022736	-0.047455	0.46783	-0.74417	-0.015259	-0.29541	-0.13168	0.021515	-0.016785	0.089874	-0.17364	-0.015564	0.004272	0.019836	-0.84045	-0.67444	-0.077515	-0.006561	0.09201	0.27054	-0.056305	-0.010986	0.003967	0.35904	-0.009918	0.11719	0.16022	-0.001831	-0.002747
11.42	0.009613	0.35843	-0.11612	0.011292	-0.083313	0.53451	-0.91507	-0.009308	-0.097656	-0.075073	0.008087	-0.007172	0.83252	-0.15503	-0.02594	0.012207	-0.004578	-0.94132	-0.65506	-0.095062	-0.011597	0.085754	0.27481	-0.053253	0.012512	0.007935	0.25101	-0.009918	0.10712	0.14069	-0.001984	-0.008392
11.421	0.00885	0.22308	0.00946	-0.017548	-0.091858	0.51804	-0.96985	-0.016327	0.093689	-0.083771	-0.026398	0.006104	0.14084	-0.090942	-0.019531	-0.007782	-0.007935	-1.0132	-0.6282	-0.097351	-0.021362	0.072784	0.29999	0.021057	0.021515	0.005188	0.052338	-0.011292	0.083466	0.072632	-0.001678	-0.014954
11.422	0.010681	0.11658	0.20859	-0.048523	-0.046082	0.50369	-0.88547	-0.016479	0.19211	-0.10803	-0.03006	0.011444	0.60837	0.090027	-0.010986	0.002747	-0.026093	-1.1438	-0.67123	-0.017395	-0.024414	0.081635	0.28305	0.010071	-0.000305	-0.001373	-0.10132	-0.010681	0.053101	0.075226	-0.001068	-0.010071
11.423	0.00824	0.029907	0.15732	0.005341	0.015564	0.21362	-0.76233	-0.012665	0.030518	-0.0737	-0.031433	-0.003204	0.36316	0.18097	-0.002441	-0.012054	-0.045624	-1.1899	-0.68878	0.015869	-0.037842	0.098877	0.28122	0.024567	0.014801	0.000305	-0.13977	-0.009918	0.050964	0.045471	0.000763	-0.009003
11.424	-0.012054	-0.010529	0.16846	0.035706	-0.00885	0.24429	-0.77347	-0.014343	-0.025482	-0.05188	0.0177	-0.019226	-0.040588	0.21255	0.44861	-0.006256	-0.087128	-1.2682	-0.69382	0.029755	-0.045319	0.092468	0.29083	-0.023041	0.014954	-0.000458	-0.19638	-0.009918	0.038147	0.047913	0.002289	-0.010376
11.425	-0.006409	0.053253	0.17624	0.014801	-0.060272	0.17029	-0.86975	-0.007019	-0.003052	-0.037537	0.02533	-0.008545	-0.45059	0.10529	-0.071869	0.007629	-0.068817	-1.3799	-0.77255	0.10468	-0.042419	0.091248	0.298	-0.029449	0.005493	-0.004578	0.21194	-0.006714	0.021057	0.068817	0	-0.012054
11.426	-0.0177	0.098419	0.10422	0.032501	-0.088806	0.15656	-0.84976	-0.000305	0.014954	-0.008698	-0.075531	-0.007782	-0.28625	0.066071	0.029755	-0.006561	-0.058441	-1.5085	-0.78644	0.14084	-0.051727	0.092316	0.30258	-0.027924	0.006409	-0.009613	0.48141	-0.009308	-0.06897	0.095978	-0.001678	-0.022278
11.427	-0.021057	0.30884	0.10437	0.031891	-0.071564	-0.26901	-0.80643	0.03479	0.029144	-0.07431	0.001984	-0.005951	0.40131	0.19547	-0.06485	-0.004425	-0.062561	-1.5985	-0.72113	0.10986	-0.043945	0.047302	0.28671	0.003204	0.000458	-0.009308	0.38437	-0.011139	-0.08255	0.062866	-0.001373	-0.017548
